PathFileType	4	(X/Y/Z)	Run_400 02
DataRate	CameraRate	NumFrames	NumMarkers	Units	OrigDataRate	OrigDataStartFrame	OrigNumFrames
100	100	4	42	mm	100	148	128
Frame#	Time	LASI			RASI			LPSI			RPSI			RTH1			RTH2			RTH3			LTH1			LTH2			LTH3			RTB1			RTB2			RTB3			LTB1			LTB2			LTB3			RCAL			RTOE			RMT5			LCAL			LTOE			LMT5			LACR			RACR			CLAV			C7			RUA1			RUA2			RUA3			RLEL			RMEL			LUA1			LUA2			LUA3			LLEL			LMEL			RFAsuperior			RFAradius			RFAulna			LFAsuperior			LFAradius			LFAulna			
		X1	Y1	Z1	X2	Y2	Z2	X3	Y3	Z3	X4	Y4	Z4	X5	Y5	Z5	X6	Y6	Z6	X7	Y7	Z7	X8	Y8	Z8	X9	Y9	Z9	X10	Y10	Z10	X11	Y11	Z11	X12	Y12	Z12	X13	Y13	Z13	X14	Y14	Z14	X15	Y15	Z15	X16	Y16	Z16	X17	Y17	Z17	X18	Y18	Z18	X19	Y19	Z19	X20	Y20	Z20	X21	Y21	Z21	X22	Y22	Z22	X23	Y23	Z23	X24	Y24	Z24	X25	Y25	Z25	X26	Y26	Z26	X27	Y27	Z27	X28	Y28	Z28	X29	Y29	Z29	X30	Y30	Z30	X31	Y31	Z31	X32	Y32	Z32	X33	Y33	Z33	X34	Y34	Z34	X35	Y35	Z35	X36	Y36	Z36	X37	Y37	Z37	X38	Y38	Z38	X39	Y39	Z39	X40	Y40	Z40	X41	Y41	Z41	X42	Y42	Z42	

141	1.94	751.645964	987.711528	-438.154464	757.4738	987.430341	-166.573371	581.881938	1002.54568	-351.687579	582.368249	1005.689	-251.478319	657.546174	802.7575440000001	-123.698063	731.440956	693.644447	-149.655433	649.200111	577.152067	-174.520053	728.5160980000001	785.67036	-465.968785	862.390696	706.622258	-458.987414	871.633654	590.026662	-440.136069	637.7960440000001	335.164771	-262.39938	589.145393	294.115912	-198.668253	533.25959	200.836014	-262.698363	838.8783	419.458211	-356.15583	752.539583	402.809468	-429.929453	703.999288	339.570488	-363.838653	360.59509	125.543417	-267.359782	578.927585	64.959194	-274.44149	522.819948	57.234349	-186.741143	533.188008	375.154243	-362.622711	605.333431	159.43421	-335.963239	565.936007	191.097429	-425.854643	741.355623	1455.692649	-463.334851	766.935749	1468.302391	-131.146731	805.189708	1394.416616	-268.078329	687.966059	1484.419324	-287.990534	728.786534	1394.743732	-40.003371	659.317143	1319.8687	-51.119358	695.406396	1277.135196	0.800396	669.77299	1176.59107	43.814526	637.649738	1154.749349	-27.108585	673.654318	1382.507415	-537.660705	604.816275	1318.400816	-497.223732	587.802508	1264.780046	-557.061724	564.438755	1184.540096	-590.748601	538.789704	1177.547009	-517.858872	771.756427	1138.355665	32.876219	907.798147	1088.849999	-28.207455	874.635981	1029.065659	-7.479475	650.987451	1110.626521	-584.4920959999999	763.415616	1012.634274	-510.301397	720.2391260000001	971.1879730000001	-550.346861	
142	1.95	752.5483819999999	994.153511	-437.946979	759.6165140000001	988.441885	-166.291469	584.3036990000001	1008.309452	-351.782154	585.200506	1010.381988	-251.598961	650.1447429999999	806.696468	-124.028531	716.882412	695.362185	-150.027152	626.832847	583.323271	-175.255882	735.280695	794.787945	-468.77891	870.831429	720.375806	-459.146399	883.760617	603.920154	-440.533856	606.196918	340.260715	-260.632573	555.788572	299.632973	-196.81653	499.26709	207.56013	-261.847577	863.982924	423.185522	-357.279067	775.948842	401.813952	-428.445654	734.736297	332.59079	-362.271522	325.670351	136.931019	-265.789195	539.320708	63.942597	-275.219203	484.084637	57.653872	-187.560217	559.416615	348.502582	-359.584592	658.444474	144.055131	-332.443902	614.14872	169.621522	-422.263818	738.556594	1461.367823	-464.202368	768.787914	1474.832202	-133.432191	805.65158	1400.161025	-270.401128	687.709944	1489.140516	-288.799327	732.1415919999999	1401.688548	-41.302224	662.874723	1326.515198	-50.02853	700.971189	1283.623777	0.298838	677.051269	1183.215749	44.312783	644.973756	1160.501144	-26.75019	666.450751	1392.52345	-537.530915	597.813841	1330.448666	-495.226444	575.843288	1278.177273	-555.7211589999999	548.085299	1199.467381	-588.990169	525.580822	1192.671277	-515.016887	780.263379	1148.707928	32.228932	917.217236	1104.332269	-30.405059	886.799696	1043.412471	-9.280765000000001	633.333224	1124.303716	-586.951041	747.138738	1024.239772	-518.786591	701.1496059999999	983.24799	-556.042746	
143	1.96	754.476133	1001.135182	-436.991373	762.784943	989.981961	-165.52723	587.535014	1014.509902	-352.439138	588.194332	1015.441199	-252.246825	643.397318	811.1670789999999	-124.036194	703.33056	699.080472	-149.861656	605.70527	591.986265	-175.689062	741.60713	804.4464359999999	-471.463366	878.123376	733.823365	-459.036582	893.998073	617.033112	-441.117436	575.532332	347.4164	-258.140511	523.948978	307.907549	-194.656992	467.245976	216.31665	-260.265558	887.270402	426.69344	-358.929196	797.9811110000001	400.045781	-426.845264	765.589672	325.396788	-360.850336	293.533564	150.87541	-264.243562	500.201761	62.678666	-275.960187	445.981892	58.795754	-188.637348	588.355898	320.508837	-356.201973	713.343327	131.01836	-329.260967	664.3923119999999	149.685859	-419.019101	735.60158	1467.672866	-464.994889	770.570104	1481.744265	-135.881462	806.175515	1406.486346	-272.941223	687.451411	1494.256405	-289.706495	735.282091	1409.11931	-42.831863	665.910302	1334.166324	-49.400845	706.1460949999999	1290.811444	-0.283121	683.2679889999999	1190.608843	44.494499	650.94925	1167.283684	-26.59824	659.970785	1403.35098	-537.112725	591.174137	1343.316213	-494.267579	565.605486	1291.959066	-554.929217	533.536032	1215.01824	-586.918208	514.229881	1208.405675	-511.823448	787.307997	1159.692309	31.33013	924.90233	1120.132069	-32.8354	897.160383	1058.121789	-11.418124	617.562311	1139.375938	-588.488288	732.151102	1037.16753	-525.972841	684.080968	996.590555	-561.048334	
144	1.97	756.992181	1008.321648	-435.725466	766.062212	992.19553	-165.001058	590.846425	1021.089693	-353.178437	591.198517	1021.080609	-253.057019	637.023289	816.210461	-124.276303	691.266471	703.854734	-149.652345	586.569698	602.549173	-175.319674	747.5248810000001	814.423007	-473.749148	884.155186	746.533521	-458.825021	902.113982	628.993138	-441.396716	546.7920769999999	356.693749	-254.737945	494.052813	318.737051	-191.612386	437.681046	226.618957	-257.620224	908.348359	429.994569	-360.670307	818.838454	396.825757	-425.098377	796.539411	317.970917	-359.665731	264.639378	166.843177	-262.75633	462.110325	61.567394	-276.220165	408.500884	60.695725	-189.246214	620.311428	291.808334	-352.83218	769.431113	120.44201	-326.874548	716.100284	131.248626	-416.298476	732.851319	1474.298092	-465.729916	772.251935	1488.687256	-138.45307	806.684422	1413.122357	-275.595611	687.227675	1499.580595	-290.677532	738.307805	1416.707298	-44.513933	668.6704549999999	1342.419235	-49.016634	710.921786	1298.408491	-0.876148	688.528011	1198.442848	44.495967	655.633299	1174.750756	-26.466425	654.666864	1414.468166	-536.517434	585.254724	1356.864447	-493.612831	557.011081	1305.851929	-554.1547880000001	520.812868	1230.72829	-584.551297	504.745445	1224.296446	-508.280279	793.109408	1170.936778	30.292172	930.943577	1135.600313	-35.444693	905.783088	1072.537713	-13.776492	603.6868490000001	1154.824667	-589.4398200000001	718.5813889999999	1050.416189	-531.776223	668.937979	1010.321369	-565.0985429999999	
